<svg xmlns="http://www.w3.org/2000/svg" width="450" height="507" viewBox="0 0 5.76 6.48" shape-rendering="geometricPrecision" text-rendering="geometricPrecision" image-rendering="optimizeQuality" fill-rule="evenodd" clip-rule="evenodd"><defs><linearGradient id="id0" gradientUnits="userSpaceOnUse" x1="5.76" y1="2.25" x2="5.55" y2="2.25"><stop offset="0" stop-color="#5d59a2"/><stop offset="1" stop-color="#8dd1e6"/></linearGradient><linearGradient id="id1" gradientUnits="userSpaceOnUse" x1="2.99" y1="3.49" x2="3.11" y2="4.36"><stop offset="0" stop-color="#d4eafa"/><stop offset="1" stop-color="#9da3d2"/></linearGradient><linearGradient id="id2" gradientUnits="userSpaceOnUse" x1="4.78" y1="3.28" x2="4.28" y2="-.45"><stop offset="0" stop-color="#74caea"/><stop offset=".702" stop-color="#f0f3f4"/><stop offset="1" stop-color="#f0f3f4"/></linearGradient><linearGradient id="id3" gradientUnits="userSpaceOnUse" x1="2.92" y1="5.01" x2="3.25" y2="4.29"><stop offset="0" stop-color="#74caea"/><stop offset="1" stop-color="#f0f3f4"/></linearGradient><style>.fil16{fill:#fefefe;fill-rule:nonzero}.fil11,.fil38,.fil56{fill:#fbc035;fill-rule:nonzero}.fil11,.fil56{fill:#f6af89}.fil11{fill:#f4a279}.fil17,.fil7,.fil8{fill:#f08555;fill-rule:nonzero}.fil17,.fil7{fill:#ea5266}.fil7{fill:#e0673f}.fil1,.fil37,.fil6{fill:#ebf2fa;fill-rule:nonzero}.fil37,.fil6{fill:#e8edf6}.fil37{fill:#e3a21e}.fil19,.fil2,.fil35{fill:#dcdfe6;fill-rule:nonzero}.fil2,.fil35{fill:#cb2266}.fil2{fill:#d3dff3}.fil0,.fil18,.fil33{fill:#bfd2ee;fill-rule:nonzero}.fil18,.fil33{fill:#ae99c8}.fil33{fill:#98cef1}.fil15,.fil3,.fil42{fill:#9eaac7;fill-rule:nonzero}.fil3,.fil42{fill:#94b2de}.fil42{fill:#74caea}.fil26,.fil29,.fil34{fill:#79aedf;fill-rule:nonzero}.fil26,.fil34{fill:#6aa8db}.fil26{fill:#7972b2}.fil23,.fil4,.fil5{fill:#4ec2f0;fill-rule:nonzero}.fil4,.fil5{fill:#5aaee1}.fil4{fill:#5ea8dc}.fil14,.fil27,.fil36{fill:#5381c1;fill-rule:nonzero}.fil14,.fil36{fill:#4475b9}.fil14{fill:#45344c}</style></defs><g id="Layer_x0020_1"><path class="fil0" d="M1.51 4.21c-.01.1-.11.18-.2.22-.1.04-.21.06-.32.06a.887.887 0 01-.32-.08c-.09-.04-.18-.12-.18-.22 0 .08 0 .14.06.2a.5.5 0 00.28.14c.19.04.46.02.61-.13.06-.06.07-.13.07-.21v.02z"/><path class="fil1" d="M1.36 3.98c.2.12.2.3 0 .42s-.52.12-.72 0c-.2-.12-.2-.3 0-.42s.52-.12.72 0z"/><path class="fil2" d="M1.09 3.75v.44l-.08.05v-.45z"/><path class="fil3" d="M1.01 3.79v.45l-.08-.05v-.44z"/><path class="fil4" d="M1.09 3.75l-.08.04-.08-.04.08-.05z"/><path class="fil5" d="M.5 2.3s-.16.04-.2.13c-.04.1-.03.83.19 1.13.23.3.64.34.74.3.1-.05.65-.32.7-.46.04-.14-.18-.25-.29-.3-.12-.06-.2-.13-.26-.32-.06-.2-.1-.53-.17-.58-.08-.05-.26-.14-.71.1z"/><path class="fil6" d="M1.46 2.1s-.26-.22-.31-.22c-.07-.01-.15.02-.17.11-.02.09.03.16.08.18.04.03.47.23.54.23.08 0 .13-.06.08-.14-.05-.08-.22-.16-.22-.16z"/><path class="fil7" d="M1.01 1.83v.01c0 .02.01.07.02.09 0 .02-.02.05-.08.06-.05 0-.14-.02-.18-.08 0-.02-.01-.14-.02-.19l.26.11z"/><path class="fil8" d="M1.12 1.43c-.04-.16-.17-.25-.32-.21 0 0-.16.03-.22.17-.07.15.04.26.11.33l.07.07.02.02c.05.04.1.07.14.08.07.01.14 0 .18-.05.04-.05.06-.24.02-.41z"/><path d="M.78 1.84s-.25.21-.28.27a.59.59 0 00.04.36c.06.12.06.55.09.64.02.08.25.1.4.06.14-.03.36-.15.31-.31-.06-.24-.05-.47-.04-.55 0-.07-.01-.26-.05-.38-.01-.03-.11-.07-.11-.07s-.09-.04-.36-.02z" fill="#2a4493" fill-rule="nonzero"/><path d="M.83 2.82c-.11-.14.05-.6-.13-.73-.06-.04-.11-.05-.15-.04-.02.02-.04.05-.05.06a.59.59 0 00.04.36c.06.12.06.55.09.64.02.07.21.09.36.07l.2-.21s-.25-.01-.36-.15z" fill="#303e79" fill-rule="nonzero"/><path class="fil6" d="M.78 1.88c.22-.02.32.02.35.03 0 .04.01.1 0 .16-.02.1-.06.4-.06.4s-.14-.24-.23-.34c-.07-.07-.13-.14-.16-.17.05-.05.1-.08.1-.08z"/><path class="fil8" d="M1.01 1.83v.01c0 .02.01.07.02.09 0 .02-.02.05-.08.06-.05 0-.14-.02-.18-.08 0-.02-.01-.14-.02-.19l.26.11z"/><path class="fil11" d="M1.12 1.43c-.04-.16-.17-.25-.32-.21 0 0-.16.03-.22.17-.07.15.04.26.11.33l.07.07.02.02c.05.04.1.07.14.08.07.01.14 0 .18-.05.04-.05.06-.24.02-.41z"/><path d="M1.1 2.13L1 2.04l-.08.14-.08-.05c.09.1.23.34.23.34s.03-.25.05-.37l-.02.03z" fill="#dae2ec" fill-rule="nonzero"/><path d="M1.09 2.3l-.04-.16v-.05L1 2.04l-.04.07.04.04.02.23c.03.05.05.09.05.09l.02-.17z" fill="#539fd7" fill-rule="nonzero"/><path class="fil7" d="M.56 1.38s-.07.11.01.24c.08.12.17.17.19.17.02 0 .03-.01.03-.02C.78 1.75.75 1.7.75 1.7s-.09-.01-.09-.07c0-.06.04-.07.07-.06.04.02.05.05.07.07.02.02.02.07.04.07.02-.01.03-.02.03-.05 0-.03 0-.06-.04-.09-.03-.03.01-.09-.02-.13a.276.276 0 00-.06-.06s.03.03.13.01c.11-.02.16-.01.2-.04.04-.03.03-.09.01-.11-.03-.02-.09-.03-.17-.06-.07-.02-.12-.01-.21.01-.09.03-.17.12-.15.19z"/><path class="fil14" d="M2.06 4.6s0 .05.06.09c.06.04.07.06.11.08.05.02.09.08.07.12-.02.04-.12.05-.19.03-.06-.01-.07-.07-.13-.09-.06-.02-.08-.05-.1-.07-.02-.02-.01-.09-.01-.09l.22-.07h-.03zM2.34 4.39s0 .05.06.09c.05.04.06.07.11.08.05.02.09.08.07.12-.02.05-.12.05-.19.04-.06-.02-.07-.08-.13-.1-.06-.02-.08-.05-.1-.06-.02-.02-.01-.09-.01-.09l.21-.07-.02-.01z"/><path class="fil15" d="M.65 3.11s.01.04.01.08-.03.14.02.27c.06.13.41.16.53.21.12.06.19.1.21.12.02.02.05.24.15.38.09.13.25.4.28.52 0 0 .1.02.19-.04.05-.03.05-.05.05-.05s-.19-.4-.23-.58c-.04-.17-.09-.37-.17-.42-.08-.05-.33-.22-.39-.26-.06-.04-.21-.15-.24-.22s-.32-.18-.41-.01z"/><path class="fil15" d="M.94 2.93s.01.05.01.08c0 .04-.03.15.03.28.05.13.41.15.53.21.11.05.18.1.21.11.02.02.05.25.14.38.09.14.25.41.28.52 0 0 .11.03.2-.03.05-.04.04-.05.04-.05s-.19-.41-.23-.58c-.04-.17-.09-.37-.17-.42-.08-.05-.33-.23-.38-.27-.06-.03-.21-.14-.24-.21-.04-.07-.33-.18-.42-.02z"/><path class="fil2" d="M2.38 4.29v1.08l-.19.11V4.4z"/><path class="fil3" d="M2.19 4.4v1.08L2 5.37V4.29z"/><path class="fil4" d="M2.38 4.29l-.19.11L2 4.29l.19-.11z"/><path class="fil0" d="M5.51 3.54v.03H5.5v.02c-.01 0-.01.01-.01.01l-.01.01c-.01.01-.01.01-.01.02h-.01l-.01.01c-.01 0-.01.01-.01.01h-.01L2.98 5.08c-.02.01-.04.02-.07.03-.02 0-.03.01-.05.01-.02 0-.03 0-.04.01h-.1v.17h.1c.01 0 .02 0 .04-.01.01 0 .03 0 .05-.01.03-.01.05-.02.07-.03l2.44-1.42h.01s0-.01.01-.01l.01-.01h.01V3.8h.01s0-.01.01-.01c0-.01 0-.01.01-.01v-.01l.01-.01v-.01l.01-.01v-.02-.19.01zM2.69 5.12h-.03c-.01 0-.02-.01-.03-.01-.01 0-.02-.01-.03-.01-.02-.01-.03-.02-.05-.02L.09 3.65C.03 3.62 0 3.58 0 3.53v.17c0 .05.03.09.09.13l2.46 1.42c.02.01.03.02.05.02.01.01.02.01.03.01.01.01.02.01.03.01.01 0 .02.01.03.01h.03v-.17c-.01 0-.02-.01-.03-.01z"/><path class="fil1" d="M5.42 3.41c.12.07.12.18.01.25L2.98 5.08c-.12.07-.31.07-.43 0L.09 3.66c-.12-.07-.12-.18 0-.25l2.44-1.42c.12-.07.31-.07.43 0l2.46 1.42z"/><path class="fil16" d="M2.78 3.93l.67.39.48-.27-.68-.39z"/><path class="fil17" d="M3.35 3.83l-.11.06-.13-.04c.04-.04.13-.06.2-.03.02 0 .03.01.04.01z"/><path class="fil18" d="M3.37 3.84c.08.04.08.11.01.15-.08.04-.19.04-.26 0-.06-.03-.07-.08-.04-.12l.17.04.12-.07z"/><path class="fil0" d="M3.28 4.13c-.01.01-.01.01 0 .02h.02l.3-.18c.01 0 .01-.01 0-.01h-.02l-.3.17z"/><path class="fil19" d="M3.48 4.05v.02h.03l.12-.08c.01 0 .01-.01 0-.01h-.02l-.13.07zM3.45 4.11c-.01.01-.01.01 0 .02h.02l.2-.12V4c-.01-.01-.02-.01-.02 0l-.2.11z"/><path d="M3.57 4.49c.02.01.02.02 0 .03l-.48.28c-.02.01-.04.01-.06 0l-.33-.19c-.02-.01-.02-.03-.01-.04l.49-.28c.01-.01.04-.01.06 0l.33.2z" fill="#f6fbfe" fill-rule="nonzero"/><path d="M3.58 4.51v.01h-.01l-.48.28h-.01v.01h-.01-.01-.02V4.8h-.01l-.33-.19-.02-.02v.02c0 .01.01.01.02.02l.33.19h.01v.01h.03l.01-.01h.01l.48-.28h.01V4.5v.01z" fill="url(#id1)"/><path d="M3.52 4.49c.01.01.01.01 0 .01l-.46.27h-.01l-.31-.17v-.02l.46-.26h.02l.3.17z" fill="url(#id3)"/><path class="fil16" d="M1.28 2.9l.67.39.48-.27-.68-.39z"/><path class="fil18" d="M1.85 2.81l-.1.06-.14-.04c.04-.05.13-.06.2-.04.02 0 .03.01.04.02z"/><path class="fil23" d="M1.88 2.81c.07.04.07.11 0 .15-.07.04-.19.04-.26 0-.06-.03-.07-.08-.03-.12l.16.05.13-.08z"/><path class="fil0" d="M1.78 3.11c-.01 0-.01 0 0 .01h.02l.3-.18c.01 0 .01 0 0-.01h-.02l-.3.18z"/><path class="fil19" d="M1.99 3.03c-.01 0-.01.01 0 .01h.02l.13-.08v-.01h-.02l-.13.08z"/><path class="fil23" d="M1.95 3.09c-.01 0-.01.01 0 .01h.02l.2-.12v-.01h-.02l-.2.12z"/><path fill="#5c4190" fill-rule="nonzero" d="M2.36 4.11v.04l-.09.05v-.04z"/><path fill="#4a3181" fill-rule="nonzero" d="M2.27 4.16v.04l-.79-.45v-.04z"/><path class="fil26" d="M2.36 4.11l-.09.05-.79-.45.09-.06z"/><path class="fil27" d="M2.01 4.12v.04l-.09.05v-.04z"/><path fill="#51539e" fill-rule="nonzero" d="M1.92 4.17v.04l-.63-.36v-.04z"/><path class="fil29" d="M2.01 4.12l-.09.05-.63-.36.1-.05z"/><path fill="#e72a65" fill-rule="nonzero" d="M1.49 4.03v.04l-.09.05v-.04z"/><path fill="#e83f86" fill-rule="nonzero" d="M1.4 4.08v.04l-.29-.16v-.04z"/><path fill="#e83e8e" fill-rule="nonzero" d="M1.49 4.03l-.09.05-.29-.16.09-.06z"/><path class="fil0" d="M.86 3.81c-.01 0-.01.01 0 .01.01.01.02.01.03 0l.48-.27c.01 0 .01-.01 0-.02h-.04l-.47.28zM1.19 3.68c-.01 0-.01.01 0 .02h.03l.2-.12c.01 0 .01-.01 0-.02h-.03l-.2.12zM1.13 3.77c-.01.01-.01.02 0 .02 0 .01.02.01.03 0l.31-.18c.01 0 .01-.01 0-.02h-.03l-.31.18z"/><path class="fil33" d="M1.1 3.34l-.08.04a.255.255 0 00-.24 0L.7 3.34c.11-.06.29-.07.4 0zM1.11 3.34c.09.06.1.14.03.2l-.08-.04c.03-.04.02-.08-.03-.11l.08-.05z"/><path class="fil34" d="M1.13 3.55c-.01.01-.02.01-.03.02-.1.06-.28.06-.39 0l.08-.04c.07.03.17.03.24-.01.01 0 .01-.01.02-.01l.08.04zM.76 3.39c-.05.04-.04.1.02.13l-.08.05c-.1-.06-.1-.16-.01-.22l.07.04z"/><path class="fil29" d="M2.59 1.31c.03.02.06.07.06.11v.61c0 .04-.03.05-.06.03l-.17-.1-.01.02-.03.04-.03-.08-.01-.02-.17-.1c-.04-.02-.06-.07-.06-.11v-.6c0-.04.03-.06.06-.04l.42.24z"/><path class="fil16" d="M2.3 1.32v.02c0 .01-.01.01-.02.01L2.2 1.3c-.01 0-.01-.01-.01-.01v-.02c0-.01.01-.01.02-.01l.08.05s.01 0 .01.01z"/><path class="fil0" d="M2.55 1.55v.02c0 .01-.01.01-.02.01l-.33-.2c-.01 0-.01 0-.01-.01v-.01c0-.01.01-.02.02-.02l.34.2v.01z"/><path class="fil16" d="M2.28 1.54v.02l-.05.16-.02-.01.05-.16-.06-.03V1.5zM2.37 1.6v.02l-.05-.03-.01.06c.01-.01.02-.01.03 0 .02.01.03.03.03.06v.04c0 .03-.01.04-.04.03-.02-.02-.04-.04-.04-.07v-.02l.02.01v.02c0 .02.01.03.02.04.02.01.02 0 .02-.02V1.7c0-.02 0-.03-.02-.04-.01 0-.01 0-.02.01v.01l-.01-.01v-.11l.07.04zM2.51 1.85v-.06c0-.02 0-.02-.01-.03-.01 0-.01 0-.01.01v.07c0 .01 0 .02.01.02.01.01.01 0 .01-.01zm-.01-.1c.02.01.03.02.03.04v.07c0 .02-.01.02-.03.01-.02-.01-.02-.02-.02-.04v-.07c0-.01 0-.02.02-.01zM2.43 1.73v-.07c0-.01-.01-.02-.01-.02-.01-.01-.02 0-.02.01v.06c0 .01.01.02.02.03 0 0 .01 0 .01-.01zm.01 0c0 .02-.01.03-.02.02a.055.055 0 01-.03-.05v-.06c0-.02.01-.03.03-.02.01.01.02.03.02.05v.06zM2.49 1.66l.01.01-.07.16h-.01z"/><path class="fil0" d="M3.36 2.57c.2.11.2.3 0 .42-.2.11-.52.11-.73 0-.2-.12-.2-.31 0-.42.2-.12.53-.12.73 0z"/><path class="fil35" d="M3.36 2.44v.08l-.13.07v-.07zM2.85 2.57c.01 0 .02-.01.02-.01h.02s.01 0 .01-.01h.03c.01 0 .02 0 .03-.01h.12c.01.01.01.01.02.01h.03c.01.01.02.01.03.01.01 0 .02.01.02.01h.01s.01 0 .01.01h.01c.01 0 .02.01.02.01v-.08c0-.01-.01-.01-.02-.02H3.2h-.01v-.01h-.01-.02v-.01h-.01-.02-.01c0-.01 0-.01-.01-.01H3.1h-.01-.01-.01-.01-.01-.01l-.01-.01h-.02c0 .01-.01 0-.01 0 0 .01-.01.01-.01.01h-.07c-.01.01-.01.01-.02.01h-.01c-.01 0-.01 0-.02.01h-.02c-.01.01-.01.01-.02.01l-.01.01s-.01 0-.02.01h-.01v.01h-.01l-.01.01-.01.01s-.01 0-.01.01c0 0-.01 0-.01.01v.01h-.01v.01l-.01.01v.03h-.01V2.71h.01v-.04h.01v-.01-.01h.01v-.01s.01 0 .01-.01c0 0 .01 0 .01-.01h.01v-.01h.01s0-.01.01-.01h.01v-.01c.01 0 .02-.01.02-.01h.01c.01 0 .01-.01.02-.01zM2.8 2.77v.07l-.12.08v-.08z"/><path class="fil35" d="M2.68 2.84v.08c-.1-.06-.15-.13-.15-.2v-.08c0 .07.05.15.15.2z"/><path class="fil17" d="M3.36 2.44l-.13.08a.466.466 0 00-.43 0c-.12.07-.11.18 0 .25l-.12.07c-.19-.11-.19-.29-.01-.4.19-.11.5-.11.69 0z"/><path class="fil36" d="M3.23 2.54v.05c.06.04.09.08.09.13v-.08c0-.04-.03-.06-.09-.1zM3.36 2.87v.05l-.13-.08v-.05zM3.5 2.65v.04c0 .01 0 .01-.01.01v.02c-.01 0-.01.01-.01.01 0 .01 0 .01-.01.01v.01l-.01.01c0 .01-.01.01-.01.02h-.01s0 .01-.01.01v.01h-.01s0 .01-.01.01-.01.01-.01.01h-.01c0 .01 0 .01-.01.01l-.01.01h-.01v.08l.01-.01c.01 0 .01 0 .01-.01h.01l.01-.01h.01v-.01h.01c0-.01.01-.01.01-.01v-.01c.01 0 .01 0 .01-.01h.01c0-.01.01-.01.01-.01v-.01c.01 0 .01-.01.01-.01l.01-.01V2.8l.01-.01v-.02h.01v-.01-.01-.01-.1.01z"/><path class="fil29" d="M3.36 2.47c.19.11.19.28 0 .39v.01l-.13-.08h.01c.11-.07.11-.18-.01-.25l.13-.07z"/><path class="fil37" d="M3.29 2.95h.01l.01-.01c.01 0 .01 0 .02-.01h.01s.01-.01.02-.01V2.9c-.01.01-.02.01-.02.01-.01 0-.01.01-.01.01h-.02c0 .01 0 .01-.01.01 0 0-.01 0-.01.01h-.03c0 .01-.01.01-.01.01h-.01-.01c0 .01-.01.01-.01.01H3.2c-.01 0-.02.01-.03.01v.01h.03c.01 0 .01-.01.02-.01h.02c.01 0 .01 0 .01-.01h.03c0-.01 0-.01.01-.01z"/><path class="fil38" d="M3.36 2.9c-.05.03-.12.05-.19.07l-.06-.1c.05-.01.09-.02.12-.04l.13.07z"/><path class="fil26" d="M3.15 2.96h-.03-.01c-.01 0-.02 0-.03.01H2.98c-.01 0-.02-.01-.03-.01h-.07c-.01-.01-.02-.01-.03-.01h-.01s-.01-.01-.02-.01h-.01-.01c-.01-.01-.01-.01-.02-.01h-.01c-.01-.01-.01-.01-.02-.01 0 0-.01 0-.02-.01-.01 0-.02-.01-.02-.01H2.7c-.01-.01-.02-.01-.02-.01v.03s.01 0 .02.01h.01s.01.01.02.01c.01.01.01.01.02.01s.01.01.02.01h.01c.01 0 .01 0 .02.01h.02c.01.01.02.01.02.01h.02s.01 0 .02.01H2.95V3h.13c.01 0 .01-.01.02-.01h.07v-.04s-.01.01-.02.01z"/><path class="fil18" d="M3.11 2.85l.06.1a.74.74 0 01-.49-.06l.12-.08c.09.05.21.06.31.04z"/><path d="M3.39.02L3.38.01h-.02V0h-.01-.01-.01-.01-.01s0 .01-.01.01l-.08.04h.06c.01 0 .02.01.03.01l2.24 1.3.09-.05L3.39.02z" fill="url(#id2)"/><path d="M5.76 1.52v-.01c0-.01 0-.01-.01-.01v-.01-.01-.01-.01h-.01v-.01-.02h-.01v-.01-.01h-.01V1.4l-.01-.01c0-.01 0-.01-.01-.01v-.01s-.01 0-.01-.01c0 0 0-.01-.01-.01 0 0 0-.01-.01-.01l-.01-.01s-.01 0-.01-.01h-.01v-.01l-.09.05c.01.01.02.01.03.02.01 0 .01.01.02.02.02.01.03.03.04.05.01.01.01.02.02.03 0 .01 0 .02.01.03v.03c.01.01.01.02.01.03l-.01 1.54v.02c0 .01-.01.02-.01.02 0 .01 0 .01-.01.02 0 .01-.01.01-.01.01l.08-.04c0-.01.01-.01.01-.01v-.01h.01v-.01-.01c.01 0 .01 0 .01-.01v-.01-.01-.01l.01-1.54z" fill="url(#id0)"/><path d="M5.55 1.36c.07.04.13.13.13.21l-.01 1.54c0 .07-.05.1-.12.06L3.3 1.88a.304.304 0 01-.12-.21L3.19.13c0-.07.05-.11.12-.07l2.24 1.3z" fill="#3d398a" fill-rule="nonzero"/><path class="fil27" d="M4.9.73c.02.01.04.04.04.07v.48c0 .02-.02.03-.04.02L4.2.89C4.17.88 4.16.85 4.16.83V.35c0-.03.02-.04.04-.03l.7.41z"/><path class="fil16" d="M3.57.52v.02c0 .01-.02.02-.03.01l-.1-.06c-.01 0-.01-.01-.01-.01V.46c0-.02.01-.02.03-.02l.1.06c0 .01.01.01.01.02z"/><path class="fil42" d="M3.89.81v.03c0 .01-.01.02-.02.01L3.44.6c-.01 0-.01-.01-.01-.01V.57c0-.02.01-.02.02-.02l.44.25v.01z"/><path fill="#3fbdd8" fill-rule="nonzero" d="M3.37 1.54l.17-.08.11.17.13.13.13-.07.26-.09.11.17.12.1.12.17.15-.32.18.09.1-.08.19.05.29-.03v-.01l-.29.02-.2-.05-.09.08-.18-.09-.15.31-.1-.15-.12-.1-.13-.18-.27.09-.12.07-.12-.12-.12-.19-.18.09z"/><path d="M4.38.55c-.06-.04-.12-.03-.15.03-.03.07 0 .2.08.28l.02-.04c-.05-.06-.08-.15-.06-.2.02-.04.07-.05.11-.02.01.01.02.02.04.03l.01-.05a.219.219 0 00-.05-.03z" fill="#f6f5f6" fill-rule="nonzero"/><path d="M4.43.58l-.01.05c.06.06.09.16.07.21v.01h-.01c-.01.03-.05.04-.08.02-.01 0-.01 0-.02-.01h-.01C4.36.85 4.36.85 4.35.85V.84c-.01 0-.01-.01-.01-.01L4.33.82l-.02.04c0 .01.01.01.01.01 0 .01.01.01.01.01l.01.01c.01.01.02.01.02.02.01 0 .01 0 .01.01h.01c.01 0 .01.01.02.01h.01c.05.02.1.01.12-.04.04-.08 0-.21-.09-.3L4.43.58z" fill="#fbba05" fill-rule="nonzero"/><path class="fil16" d="M4.69.81v.02s-.01.01-.02 0L4.61.8V.78c0-.01.01-.01.01-.01l.06.03.01.01zM4.88.98V1s-.01.01-.02.01L4.61.86V.84c0-.01.01-.01.01-.01l.25.15h.01z"/><path d="M4.76 1.07L4.61.99V.97c0-.01 0-.01.01-.01l.15.08v.02c0 .01 0 .01-.01.01z" fill="#aecbec" fill-rule="nonzero"/><path class="fil29" d="M4.84 1.03v.01c0 .01-.01.01-.02.01L4.61.93V.9s.01-.01.01 0l.21.12c.01 0 .01 0 .01.01z"/><path d="M5.43 1.59c-.07-.04-.13-.01-.13.07 0 .09.06.19.13.23.08.04.13.01.13-.08a.26.26 0 00-.13-.22z" fill="#e8406e" fill-rule="nonzero"/><path d="M5.43 1.67c-.03-.02-.06 0-.06.03 0 .04.03.09.06.11.04.02.06 0 .06-.04a.11.11 0 00-.06-.1z" fill="#36346d" fill-rule="nonzero"/><path class="fil42" d="M3.58.8v.02c0 .02-.02.02-.03.02L3.44.78c0-.01-.01-.01-.01-.02V.74c0-.01.02-.02.03-.02l.11.07s.01 0 .01.01zM3.91 1.11v.02c0 .01-.01.02-.02.01L3.44.89S3.43.88 3.43.87V.85c0-.01.02-.02.03-.01l.45.25v.02z"/><path d="M3.71 1.27l-.01-.01-.26-.15s-.01 0-.01-.01v-.02c0-.01.01-.02.02-.02h.01l.26.15c.01 0 .01.01.01.02v.02c0 .01-.01.02-.02.02z" fill="#2f94cf" fill-rule="nonzero"/><path class="fil42" d="M3.85 1.18v.02c0 .02-.02.02-.03.02L3.44 1 3.43.99V.96c0-.01.02-.02.03-.01l.38.21c0 .01.01.01.01.02z"/><path fill="#1ba140" fill-rule="nonzero" d="M5.11 2.71l.06-.03v.41l-.06.04z"/><path d="M5.23 2.7v-.01l-.19-.37v-.01h-.01l-.06.03.01.01.19.38v.02l.06-.04V2.7z" fill="#7eba32" fill-rule="nonzero"/><path d="M4.97 2.34l.01.01.19.38c.01.01 0 .02-.01.01l-.05-.03v.42l-.28-.16v-.41l-.05-.03c0-.01-.01-.02 0-.03l.19-.16z" fill="#4cad3b" fill-rule="nonzero"/><path class="fil16" d="M3.02 3.22l.54.56.53-.14-.54-.56z"/><path class="fil1" d="M3.6 3.26l-.05.02c-.04-.03-.11-.05-.15-.03h-.01l-.04-.03c.08-.03.19-.01.25.04zM3.61 3.26c.05.05.05.1 0 .13l-.05-.03c.02-.02.02-.05 0-.08l.05-.02z"/><path class="fil34" d="M3.6 3.4h-.02c-.07.03-.18.01-.24-.03l.05-.02c.04.03.1.04.15.02l.01-.01.05.04zM3.39 3.26c-.04.02-.04.05-.01.08l-.05.02c-.06-.05-.05-.11.01-.14l.05.04z"/><path class="fil15" d="M3.55 5.98s-.04.03 0 .1.07.02.16.09c.09.07.12.09.17.08.05-.01.08-.03.09-.06.01-.02-.02-.07-.02-.07l-.4-.14z"/><path class="fil14" d="M3.93 5.98s.02.09.03.16c.01.03-.04.08-.1.07a.19.19 0 01-.12-.04c-.02-.03-.15-.08-.18-.1a.145.145 0 01-.01-.11c.01-.01.05-.04.09-.02.04.02.08.05.16.06.09 0 .13-.02.13-.02z"/><path class="fil15" d="M3.97 5.75s-.04.03 0 .09c.04.07.08.03.17.1.09.07.12.08.17.08.05-.01.07-.03.08-.06.01-.02-.01-.07-.01-.07l-.41-.14z"/><path class="fil14" d="M4.36 5.75s.02.09.03.16c0 .03-.04.07-.1.07-.07 0-.1-.02-.12-.05-.02-.02-.16-.07-.18-.1-.03-.02-.03-.08-.02-.1.01-.01.05-.04.09-.02.05.02.08.05.17.06.08 0 .13-.02.13-.02z"/><path d="M4.03 5.01c.02.17.1.62.12.78 0 0 .03.05.14.04l.05-.02c.02-.01.03-.03.03-.05-.01-.09-.03-.31-.02-.44a.65.65 0 00-.03-.26c0-.05.01-.24-.1-.29 0 0-.26-.05-.19.24z" fill="#333a74" fill-rule="nonzero"/><path d="M4.24 4.85l-.03.06s-.43.02-.55.15c0 0-.08.01-.06.18.02.17.11.62.12.78 0 0 .04.05.15.04l.05-.02c.02-.01.03-.03.03-.05-.01-.09-.04-.31-.03-.44a.488.488 0 00-.03-.26s.2.04.4.12c.21.09.39-.01.47-.06.07-.04.1-.07.1-.07s.1 0 .2-.08c.09-.07.1-.28 0-.4s-.82.05-.82.05z" fill="#323c83" fill-rule="nonzero"/><path d="M4.4 3.76s.07-.02.07-.12c-.03-.09-.05-.1-.05-.1s.1-.09.22-.06c0 0 .07.15.15.22 0 0-.06.17-.39.06z" fill="#d37d55" fill-rule="nonzero"/><path class="fil37" d="M4.55 3.82s.27-.22.32-.23c.06 0 .14.02.17.11.02.09-.03.16-.08.19-.05.02-.47.23-.54.23-.08 0-.13-.07-.08-.15.05-.08.21-.15.21-.15z"/><path class="fil38" d="M4.64 3.67s-.28.09-.36.22c-.08.13-.07.27-.01.47.06.2-.06.38-.03.49.03.11.23.21.52.16.3-.05.32-.17.34-.23.02-.07-.06-.37.01-.62a.455.455 0 00-.13-.47c-.05-.04-.17-.1-.34-.02z"/><path class="fil37" d="M4.98 3.69c-.05-.04-.17-.1-.34-.02 0 0-.28.09-.36.22-.02.03-.03.07-.04.1.11-.15.27-.21.37.04.1.23-.15.92-.36.7-.01.05-.02.09-.01.12.03.11.23.21.52.16.3-.05.32-.17.34-.23.02-.07-.06-.37.01-.62a.455.455 0 00-.13-.47z"/><path class="fil16" d="M4.37 3.79s.07.05.26.02c.19-.02.2-.16.18-.17a.852.852 0 01-.04-.05s-.2.09-.27.12c-.07.02-.11.04-.11.04l-.02.04z"/><path class="fil56" d="M4.25 3.21s-.02.19.08.32.21.05.27.02c.06-.03.09-.08.11-.24.02-.15.02-.3-.09-.35-.11-.05-.23-.06-.3.06-.07.12-.07.19-.07.19z"/><path d="M4.32 2.98s-.09.07-.08.17c0 .1-.03.12-.02.17.01.06.1.07.1.15.01.07.12.1.18.12.06.02.15-.05.18-.09.03-.03.02-.13.05-.22.04-.08.02-.19-.01-.26-.02-.08-.08-.09-.08-.09s-.02-.06-.09-.07c-.06-.01-.26 0-.23.12z" fill="#533562" fill-rule="nonzero"/><path class="fil0" d="M5.18 6.14c-.01.11-.11.18-.2.22-.1.05-.21.06-.32.06-.11 0-.23-.02-.33-.07-.08-.04-.17-.12-.17-.23 0 .08 0 .14.06.2a.5.5 0 00.28.14c.19.05.46.03.61-.13.06-.06.07-.12.07-.2v.01z"/><path class="fil1" d="M5.03 5.92c.2.11.2.3 0 .42-.2.11-.52.11-.72 0-.2-.12-.2-.31-.01-.42.2-.12.53-.12.73 0z"/><path class="fil2" d="M4.76 5.68v.45l-.08.05v-.45z"/><path class="fil3" d="M4.68 5.73v.45l-.08-.05v-.45z"/><path class="fil4" d="M4.76 5.68l-.08.05-.08-.05.08-.04z"/><path class="fil36" d="M5.67 4.15c0-.06-.06-.1-.12-.08-.26.09-.84.3-.88.38-.04.07-.15.47-.21.67-.02.06-.08.09-.13.06l-.36-.21c-.07-.04-.15.01-.14.09l.06.34c0 .03.02.05.05.07l.37.22c.22.12.47.12.69.02l.3-.15c.25-.13.41-.39.4-.68l-.03-.73z"/><path class="fil5" d="M4.67 4.45c-.04.07-.15.47-.21.67-.02.06-.08.09-.13.06l-.36-.21c-.07-.04-.15.01-.14.09l.06.34c0 .01 0 .02.01.03 0 0 .01.01.01.02.01 0 .02.01.03.02l.37.22c.08.04.17.07.26.08.31-.23.27-1.23.16-1.31-.02-.02-.03-.02-.05-.03 0 .01-.01.01-.01.02z"/><path class="fil38" d="M3.98 4.15s.27-.22.32-.23c.06 0 .14.02.17.11.02.09-.03.16-.08.19-.05.02-.47.23-.54.23-.08 0-.13-.07-.08-.15.05-.08.21-.15.21-.15z"/><path class="fil56" d="M3.62 3.8s-.02-.03-.02-.05c0-.02.01-.04 0-.08-.01-.05-.03-.08-.04-.11-.02-.03-.04.02-.02.06.01.04.01.06-.01.07-.02 0-.08-.04-.1-.06-.02-.02-.13-.13-.14-.12-.01.02-.01.03.03.07.04.04.05.06.05.07 0 .01 0 .02.02.05.01.04 0 .06.02.09.03.03.07.03.09.05l.02.02.1-.06z"/><path class="fil38" d="M3.85 4.45s-.12.02-.18-.11c-.06-.12-.16-.46-.18-.49 0 0 .04-.08.13-.07 0 0 .1.19.16.28.05.09.26.35.07.39z"/><path class="fil11" d="M2.19 2.32s.04-.02.06-.02c.02.01.09.02.11.02.02 0 .07-.04.08-.04 0-.01.01-.02.02-.03.01-.01.01-.01.01-.03 0-.01.02-.03.03-.04.01-.01.04-.03.04-.04-.01-.01-.02-.01-.03 0-.01 0-.05.03-.07.04a.15.15 0 01-.07.03c-.02 0-.03-.01-.03-.01h.01c.02-.01.03-.01.05-.01.01 0 .02-.01.02-.02s-.02-.01-.03-.01h-.08c-.02 0-.05.03-.05.04-.01 0-.04.01-.06.01-.02.01-.01.11-.01.11z"/><path class="fil6" d="M1.51 2.3s.03.11.17.11c.14-.01.49-.07.52-.07 0 0 .05-.07.01-.15h-.33c-.1-.01-.43-.07-.37.11zM.78 2.52s-.06-.33-.1-.37C.64 2.1.56 2.07.49 2.12c-.08.06-.09.14-.07.19.02.05.21.48.27.53.06.05.13.03.15-.06.02-.09-.06-.26-.06-.26z"/><path class="fil11" d="M1.36 2.7h.06c.02 0 .14-.01.16-.01.02 0 .02.03.02.03s.03.03.03.05v.04c.01.01 0 .02-.01.04 0 .01-.02.01-.03.02a.03.03 0 01-.04 0c-.01 0-.01-.01 0-.01.02-.01.03-.02.03-.02l-.04.02c-.03 0-.06 0-.08-.01-.03-.01-.06-.03-.06-.03l-.05-.01.01-.11z"/><path class="fil6" d="M.68 2.79s.03.11.17.11.49-.07.52-.07c0 0 .05-.07.01-.15 0 0-.22.01-.33 0-.1-.01-.43-.07-.37.11z"/></g></svg>
